# Blender 4.5.3 LTS
# www.blender.org
mtllib MuzzleCones.mtl
o Muzzlecone
v -0.070810 1.050183 0.199709
v -0.265901 1.030968 0.199709
v -0.453494 0.974062 0.199709
v -0.626380 0.881652 0.199709
v -0.777917 0.757290 0.199709
v -0.902280 0.605753 0.199709
v -0.994690 0.432866 0.199709
v -1.051595 0.245273 0.199709
v -1.070810 0.050183 0.199709
v -1.051595 -0.144907 0.199709
v -0.994690 -0.332501 0.199709
v -0.902280 -0.505387 0.199709
v -0.777917 -0.656924 0.199709
v -0.626380 -0.781287 0.199709
v -0.453494 -0.873697 0.199709
v -0.265901 -0.930602 0.199709
v -0.070810 -0.949817 0.199709
v 0.124280 -0.930602 0.199709
v 0.311873 -0.873697 0.199709
v 0.484760 -0.781287 0.199709
v 0.636297 -0.656924 0.199709
v 0.760659 -0.505387 0.199709
v 0.853069 -0.332501 0.199709
v 0.909975 -0.144907 0.199709
v 0.929190 0.050183 0.199709
v 0.909975 0.245273 0.199709
v 0.853069 0.432866 0.199709
v 0.760659 0.605753 0.199709
v 0.636297 0.757290 0.199709
v 0.484760 0.881652 0.199709
v 0.311873 0.974062 0.199709
v 0.124280 1.030968 0.199709
v -0.000156 0.022768 0.000591
v -0.004585 0.022338 0.000551
v -0.008846 0.021049 0.000522
v -0.012774 0.018951 0.000501
v -0.016218 0.016125 0.000488
v -0.019047 0.012679 0.000492
v -0.021150 0.008745 0.000505
v -0.022448 0.004476 0.000526
v -0.022891 0.000033 0.000561
v -0.022461 -0.004410 0.000605
v -0.021175 -0.008685 0.000656
v -0.019083 -0.012626 0.000711
v -0.016265 -0.016082 0.000771
v -0.012829 -0.018920 0.000831
v -0.008907 -0.021031 0.000889
v -0.004650 -0.022334 0.000942
v -0.000221 -0.022779 0.000988
v 0.004207 -0.022350 0.001035
v 0.008467 -0.021062 0.001071
v 0.012395 -0.018964 0.001093
v 0.015840 -0.016137 0.001100
v 0.018669 -0.012690 0.001092
v 0.020772 -0.008757 0.001086
v 0.022069 -0.004488 0.001064
v 0.022512 -0.000045 0.001028
v 0.022083 0.004399 0.000982
v 0.020798 0.008674 0.000927
v 0.018706 0.012615 0.000871
v 0.015887 0.016071 0.000814
v 0.012451 0.018909 0.000754
v 0.008529 0.021020 0.000696
v 0.004273 0.022323 0.000641
v 0.474553 0.025739 0.104494
v 0.464780 0.125556 0.104175
v -0.461637 -0.257988 0.102272
v -0.398109 -0.335547 0.102676
v 0.435741 0.221547 0.103808
v -0.320687 -0.399213 0.103094
v 0.388552 0.310024 0.103408
v -0.232346 -0.446539 0.103508
v -0.036318 0.537617 0.101482
v -0.136036 0.527837 0.101211
v 0.325025 0.387586 0.102991
v -0.136482 -0.475705 0.103901
v -0.231931 0.498773 0.101003
v 0.247603 0.451251 0.102576
v -0.036778 -0.485592 0.104258
v -0.320317 0.451541 0.100863
v 0.159260 0.498575 0.102176
v 0.062935 -0.475817 0.104563
v -0.397798 0.387956 0.100797
v 0.063391 0.527737 0.101807
v 0.158825 -0.446758 0.104802
v -0.461395 0.310464 0.100807
v 0.247207 -0.399529 0.104964
v -0.508664 0.222040 0.100891
v 0.324685 -0.335947 0.105041
v -0.537790 0.126084 0.101047
v 0.388283 -0.258454 0.105030
v -0.547653 0.026283 0.101272
v 0.435555 -0.170028 0.104932
v -0.537875 -0.073529 0.101557
v 0.464685 -0.074068 0.104750
v -0.508831 -0.169515 0.101894
vn 0.0003 0.1882 -0.9821
vn -0.0362 0.1830 -0.9825
vn -0.0707 0.1711 -0.9827
vn -0.1022 0.1531 -0.9829
vn -0.1297 0.1297 -0.9830
vn -0.1524 0.1017 -0.9831
vn -0.1695 0.0700 -0.9830
vn -0.1804 0.0356 -0.9829
vn -0.1849 -0.0003 -0.9828
vn -0.1826 -0.0367 -0.9825
vn -0.1735 -0.0723 -0.9822
vn -0.1577 -0.1058 -0.9818
vn -0.1356 -0.1361 -0.9814
vn -0.1078 -0.1619 -0.9809
vn -0.0751 -0.1820 -0.9804
vn -0.0386 -0.1955 -0.9800
vn 0.0002 -0.2015 -0.9795
vn 0.0398 -0.1995 -0.9791
vn 0.0786 -0.1895 -0.9787
vn 0.1146 -0.1716 -0.9785
vn 0.1464 -0.1465 -0.9783
vn 0.1723 -0.1153 -0.9783
vn 0.1912 -0.0794 -0.9783
vn 0.2023 -0.0405 -0.9785
vn 0.2051 -0.0003 -0.9787
vn 0.1996 0.0393 -0.9791
vn 0.1863 0.0767 -0.9795
vn 0.1660 0.1104 -0.9799
vn 0.1396 0.1390 -0.9804
vn 0.1085 0.1616 -0.9809
vn 0.0740 0.1776 -0.9813
vn 0.0374 0.1865 -0.9817
vn 0.0043 0.1926 -0.9813
vn -0.0337 0.1867 -0.9818
vn -0.0695 0.1742 -0.9823
vn -0.1020 0.1554 -0.9826
vn -0.1305 0.1312 -0.9827
vn -0.1540 0.1023 -0.9828
vn -0.1719 0.0696 -0.9827
vn -0.1836 0.0340 -0.9824
vn -0.1886 -0.0033 -0.9820
vn -0.1867 -0.0412 -0.9815
vn -0.1777 -0.0786 -0.9809
vn -0.1617 -0.1141 -0.9802
vn -0.1389 -0.1464 -0.9794
vn -0.1099 -0.1742 -0.9786
vn -0.0755 -0.1961 -0.9777
vn -0.0369 -0.2111 -0.9768
vn 0.0045 -0.2181 -0.9759
vn 0.0469 -0.2166 -0.9751
vn 0.0885 -0.2062 -0.9745
vn 0.1273 -0.1873 -0.9740
vn 0.1614 -0.1606 -0.9737
vn 0.1892 -0.1272 -0.9737
vn 0.2094 -0.0887 -0.9738
vn 0.2208 -0.0470 -0.9742
vn 0.2233 -0.0040 -0.9747
vn 0.2169 0.0382 -0.9754
vn 0.2021 0.0778 -0.9763
vn 0.1799 0.1132 -0.9772
vn 0.1514 0.1430 -0.9781
vn 0.1181 0.1663 -0.9790
vn 0.0815 0.1825 -0.9798
vn 0.0431 0.1912 -0.9806
vn 0.2136 -0.0021 -0.9769
vn 0.2077 0.0388 -0.9774
vn -0.1595 -0.1097 -0.9811
vn -0.1371 -0.1410 -0.9805
vn 0.1937 0.0772 -0.9780
vn -0.1087 -0.1677 -0.9798
vn 0.1725 0.1117 -0.9787
vn -0.0752 -0.1886 -0.9792
vn 0.0022 0.1902 -0.9817
vn -0.0350 0.1847 -0.9822
vn 0.1451 0.1408 -0.9793
vn -0.0378 -0.2028 -0.9785
vn -0.0701 0.1725 -0.9825
vn 0.1130 0.1638 -0.9800
vn 0.0022 -0.2093 -0.9779
vn -0.1021 0.1542 -0.9827
vn 0.0775 0.1798 -0.9806
vn 0.0432 -0.2075 -0.9773
vn -0.1301 0.1304 -0.9829
vn 0.0401 0.1887 -0.9812
vn 0.0832 -0.1973 -0.9768
vn -0.1531 0.1020 -0.9829
vn 0.1206 -0.1790 -0.9764
vn -0.1706 0.0698 -0.9829
vn 0.1534 -0.1531 -0.9762
vn -0.1819 0.0349 -0.9827
vn 0.1803 -0.1209 -0.9762
vn -0.1866 -0.0017 -0.9824
vn 0.1997 -0.0838 -0.9763
vn -0.1845 -0.0388 -0.9821
vn 0.2110 -0.0435 -0.9765
vn -0.1754 -0.0753 -0.9816
vt 0.499874 0.501666
vt 0.531116 0.501666
vt 0.531116 0.003333
vt 0.499874 0.003333
vt 0.906022 0.501666
vt 0.937264 0.501666
vt 0.937264 0.003333
vt 0.906022 0.003333
vt 0.468632 0.501666
vt 0.468632 0.003333
vt 0.874779 0.501666
vt 0.874779 0.003333
vt 0.437390 0.501666
vt 0.437390 0.003333
vt 0.843537 0.501666
vt 0.843537 0.003333
vt 0.249937 0.501666
vt 0.281179 0.501666
vt 0.281179 0.003333
vt 0.249937 0.003333
vt 0.406148 0.501666
vt 0.406148 0.003333
vt 0.812295 0.501666
vt 0.812295 0.003333
vt 0.218695 0.501666
vt 0.218695 0.003333
vt 0.374905 0.501666
vt 0.374905 0.003333
vt 0.781053 0.501666
vt 0.781053 0.003333
vt 0.187453 0.501666
vt 0.187452 0.003333
vt 0.343663 0.501666
vt 0.343663 0.003333
vt 0.749811 0.501666
vt 0.749811 0.003333
vt 0.156211 0.501666
vt 0.156211 0.003333
vt 0.312421 0.501666
vt 0.312421 0.003333
vt 0.718569 0.501666
vt 0.718569 0.003333
vt 0.124969 0.501666
vt 0.124969 0.003333
vt 0.687327 0.501666
vt 0.687327 0.003333
vt 0.093727 0.501666
vt 0.093727 0.003333
vt 0.656084 0.501666
vt 0.656084 0.003333
vt 0.062484 0.501666
vt 0.062484 0.003333
vt 0.624842 0.501666
vt 0.624842 0.003333
vt 0.031242 0.501666
vt 0.031242 0.003333
vt 0.593600 0.501666
vt 0.593600 0.003333
vt 0.000000 0.501666
vt 0.000000 0.003333
vt 0.562358 0.501666
vt 0.562358 0.003333
vt 0.968506 0.501666
vt 0.999748 0.501666
vt 0.999748 0.003333
vt 0.968506 0.003333
vt 0.937264 1.000000
vt 0.968506 1.000000
vt 0.531116 1.000000
vt 0.562358 1.000000
vt 0.999748 1.000000
vt 0.593600 1.000000
vt 0.000000 1.000000
vt 0.031242 1.000000
vt 0.624842 1.000000
vt 0.062484 1.000000
vt 0.656084 1.000000
vt 0.093727 1.000000
vt 0.687327 1.000000
vt 0.124969 1.000000
vt 0.718569 1.000000
vt 0.281179 1.000000
vt 0.312421 1.000000
vt 0.156211 1.000000
vt 0.749811 1.000000
vt 0.343663 1.000000
vt 0.187453 1.000000
vt 0.781053 1.000000
vt 0.374905 1.000000
vt 0.218695 1.000000
vt 0.812295 1.000000
vt 0.406148 1.000000
vt 0.249937 1.000000
vt 0.843537 1.000000
vt 0.437390 1.000000
vt 0.874779 1.000000
vt 0.468632 1.000000
vt 0.906022 1.000000
vt 0.499874 1.000000
s 1
f 66/1/66 65/2/65 57/3/57 58/4/58
f 68/5/68 67/6/67 44/7/44 45/8/45
f 69/9/69 66/1/66 58/4/58 59/10/59
f 70/11/70 68/5/68 45/8/45 46/12/46
f 71/13/71 69/9/69 59/10/59 60/14/60
f 72/15/72 70/11/70 46/12/46 47/16/47
f 74/17/74 73/18/73 33/19/33 34/20/34
f 75/21/75 71/13/71 60/14/60 61/22/61
f 76/23/76 72/15/72 47/16/47 48/24/48
f 77/25/77 74/17/74 34/20/34 35/26/35
f 78/27/78 75/21/75 61/22/61 62/28/62
f 79/29/79 76/23/76 48/24/48 49/30/49
f 80/31/80 77/25/77 35/26/35 36/32/36
f 81/33/81 78/27/78 62/28/62 63/34/63
f 82/35/82 79/29/79 49/30/49 50/36/50
f 83/37/83 80/31/80 36/32/36 37/38/37
f 84/39/84 81/33/81 63/34/63 64/40/64
f 85/41/85 82/35/82 50/36/50 51/42/51
f 86/43/86 83/37/83 37/38/37 38/44/38
f 73/18/73 84/39/84 64/40/64 33/19/33
f 87/45/87 85/41/85 51/42/51 52/46/52
f 88/47/88 86/43/86 38/44/38 39/48/39
f 89/49/89 87/45/87 52/46/52 53/50/53
f 90/51/90 88/47/88 39/48/39 40/52/40
f 91/53/91 89/49/89 53/50/53 54/54/54
f 92/55/92 90/51/90 40/52/40 41/56/41
f 93/57/93 91/53/91 54/54/54 55/58/55
f 94/59/94 92/55/92 41/56/41 42/60/42
f 95/61/95 93/57/93 55/58/55 56/62/56
f 96/63/96 94/64/94 42/65/42 43/66/43
f 65/2/65 95/61/95 56/62/56 57/3/57
f 67/6/67 96/63/96 43/66/43 44/7/44
f 12/67/12 11/68/11 96/63/96 67/6/67
f 25/69/25 24/70/24 95/61/95 65/2/65
f 11/68/11 10/71/10 94/64/94 96/63/96
f 24/70/24 23/72/23 93/57/93 95/61/95
f 10/73/10 9/74/9 92/55/92 94/59/94
f 23/72/23 22/75/22 91/53/91 93/57/93
f 9/74/9 8/76/8 90/51/90 92/55/92
f 22/75/22 21/77/21 89/49/89 91/53/91
f 8/76/8 7/78/7 88/47/88 90/51/90
f 21/77/21 20/79/20 87/45/87 89/49/89
f 7/78/7 6/80/6 86/43/86 88/47/88
f 20/79/20 19/81/19 85/41/85 87/45/87
f 1/82/1 32/83/32 84/39/84 73/18/73
f 6/80/6 5/84/5 83/37/83 86/43/86
f 19/81/19 18/85/18 82/35/82 85/41/85
f 32/83/32 31/86/31 81/33/81 84/39/84
f 5/84/5 4/87/4 80/31/80 83/37/83
f 18/85/18 17/88/17 79/29/79 82/35/82
f 31/86/31 30/89/30 78/27/78 81/33/81
f 4/87/4 3/90/3 77/25/77 80/31/80
f 17/88/17 16/91/16 76/23/76 79/29/79
f 30/89/30 29/92/29 75/21/75 78/27/78
f 3/90/3 2/93/2 74/17/74 77/25/77
f 16/91/16 15/94/15 72/15/72 76/23/76
f 29/92/29 28/95/28 71/13/71 75/21/75
f 2/93/2 1/82/1 73/18/73 74/17/74
f 15/94/15 14/96/14 70/11/70 72/15/72
f 28/95/28 27/97/27 69/9/69 71/13/71
f 14/96/14 13/98/13 68/5/68 70/11/70
f 27/97/27 26/99/26 66/1/66 69/9/69
f 13/98/13 12/67/12 67/6/67 68/5/68
f 26/99/26 25/69/25 65/2/65 66/1/66
